<mxfile host="app.diagrams.net" modified="2024-07-03T08:04:58.809Z" agent="Mozilla/5.0 (Windows NT 10.0; Win64; x64) AppleWebKit/537.36 (KHTML, like Gecko) Chrome/109.0.0.0 Safari/537.36 SLBrowser/9.0.3.5211 SLBChan/33" etag="z-5Q7jbVE0kn5XPPPYpq" version="24.6.4" type="github" pages="2">
  <diagram name="Page-1" id="74b105a0-9070-1c63-61bc-23e55f88626e">
    <mxGraphModel dx="2146" dy="821" grid="1" gridSize="10" guides="1" tooltips="1" connect="1" arrows="1" fold="1" page="1" pageScale="1.5" pageWidth="1169" pageHeight="826" background="none" math="0" shadow="0">
      <root>
        <mxCell id="0" style=";html=1;" />
        <mxCell id="1" style=";html=1;" parent="0" />
        <mxCell id="lPzJSW8wRPPHgE-3Pk_J-3" value="" style="edgeStyle=orthogonalEdgeStyle;rounded=0;orthogonalLoop=1;jettySize=auto;html=1;entryX=0;entryY=0.5;entryDx=0;entryDy=0;" parent="1" source="lPzJSW8wRPPHgE-3Pk_J-1" target="lPzJSW8wRPPHgE-3Pk_J-11" edge="1">
          <mxGeometry relative="1" as="geometry">
            <mxPoint x="400" y="230" as="targetPoint" />
            <Array as="points">
              <mxPoint x="400" y="240" />
            </Array>
          </mxGeometry>
        </mxCell>
        <mxCell id="lPzJSW8wRPPHgE-3Pk_J-24" value="&lt;font style=&quot;font-size: 18px;&quot;&gt;服务发现&lt;/font&gt;" style="edgeLabel;html=1;align=center;verticalAlign=middle;resizable=0;points=[];" parent="lPzJSW8wRPPHgE-3Pk_J-3" vertex="1" connectable="0">
          <mxGeometry x="-0.4489" y="2" relative="1" as="geometry">
            <mxPoint as="offset" />
          </mxGeometry>
        </mxCell>
        <mxCell id="lPzJSW8wRPPHgE-3Pk_J-5" value="" style="edgeStyle=orthogonalEdgeStyle;rounded=0;orthogonalLoop=1;jettySize=auto;html=1;" parent="1" source="lPzJSW8wRPPHgE-3Pk_J-1" target="lPzJSW8wRPPHgE-3Pk_J-4" edge="1">
          <mxGeometry relative="1" as="geometry" />
        </mxCell>
        <mxCell id="lPzJSW8wRPPHgE-3Pk_J-1" value="&lt;font style=&quot;font-size: 24px;&quot;&gt;调用方&lt;/font&gt;" style="rounded=0;whiteSpace=wrap;html=1;fillColor=#FF0000;" parent="1" vertex="1">
          <mxGeometry x="340" y="510" width="120" height="60" as="geometry" />
        </mxCell>
        <mxCell id="lPzJSW8wRPPHgE-3Pk_J-7" value="" style="edgeStyle=orthogonalEdgeStyle;rounded=0;orthogonalLoop=1;jettySize=auto;html=1;" parent="1" source="lPzJSW8wRPPHgE-3Pk_J-4" target="lPzJSW8wRPPHgE-3Pk_J-6" edge="1">
          <mxGeometry relative="1" as="geometry" />
        </mxCell>
        <mxCell id="lPzJSW8wRPPHgE-3Pk_J-4" value="&lt;font style=&quot;font-size: 24px;&quot;&gt;负载均衡&lt;/font&gt;" style="whiteSpace=wrap;html=1;rounded=0;fillColor=#33FFFF;" parent="1" vertex="1">
          <mxGeometry x="540" y="510" width="120" height="60" as="geometry" />
        </mxCell>
        <mxCell id="lPzJSW8wRPPHgE-3Pk_J-6" value="&lt;font style=&quot;font-size: 24px;&quot;&gt;编码，序列化&lt;/font&gt;" style="whiteSpace=wrap;html=1;rounded=0;fillColor=#99FFFF;" parent="1" vertex="1">
          <mxGeometry x="740" y="380" width="120" height="320" as="geometry" />
        </mxCell>
        <mxCell id="lPzJSW8wRPPHgE-3Pk_J-8" value="&lt;font style=&quot;font-size: 24px;&quot;&gt;提供方C&lt;/font&gt;" style="whiteSpace=wrap;html=1;rounded=0;fillColor=#FF8E1C;" parent="1" vertex="1">
          <mxGeometry x="1010" y="630" width="120" height="60" as="geometry" />
        </mxCell>
        <mxCell id="lPzJSW8wRPPHgE-3Pk_J-9" value="&lt;font style=&quot;font-size: 24px;&quot;&gt;提供方B&lt;/font&gt;" style="whiteSpace=wrap;html=1;rounded=0;fillColor=#FF8E1C;" parent="1" vertex="1">
          <mxGeometry x="1010" y="510" width="120" height="60" as="geometry" />
        </mxCell>
        <mxCell id="lPzJSW8wRPPHgE-3Pk_J-10" value="&lt;font style=&quot;font-size: 24px;&quot;&gt;提供方A&lt;/font&gt;" style="whiteSpace=wrap;html=1;rounded=0;fillColor=#FF8E1C;" parent="1" vertex="1">
          <mxGeometry x="1010" y="390" width="120" height="60" as="geometry" />
        </mxCell>
        <mxCell id="lPzJSW8wRPPHgE-3Pk_J-11" value="&lt;font style=&quot;font-size: 24px;&quot;&gt;注册中心&lt;/font&gt;" style="rounded=1;whiteSpace=wrap;html=1;fillColor=#007FFF;" parent="1" vertex="1">
          <mxGeometry x="620" y="210" width="120" height="60" as="geometry" />
        </mxCell>
        <mxCell id="lPzJSW8wRPPHgE-3Pk_J-14" value="" style="endArrow=classic;html=1;rounded=0;exitX=1.002;exitY=0.128;exitDx=0;exitDy=0;exitPerimeter=0;entryX=0;entryY=0.5;entryDx=0;entryDy=0;" parent="1" source="lPzJSW8wRPPHgE-3Pk_J-6" target="lPzJSW8wRPPHgE-3Pk_J-10" edge="1">
          <mxGeometry width="50" height="50" relative="1" as="geometry">
            <mxPoint x="940" y="500" as="sourcePoint" />
            <mxPoint x="990" y="450" as="targetPoint" />
          </mxGeometry>
        </mxCell>
        <mxCell id="lPzJSW8wRPPHgE-3Pk_J-15" value="" style="endArrow=classic;html=1;rounded=0;exitX=1;exitY=0.5;exitDx=0;exitDy=0;" parent="1" source="lPzJSW8wRPPHgE-3Pk_J-6" edge="1">
          <mxGeometry width="50" height="50" relative="1" as="geometry">
            <mxPoint x="860" y="551" as="sourcePoint" />
            <mxPoint x="1010" y="540" as="targetPoint" />
          </mxGeometry>
        </mxCell>
        <mxCell id="lPzJSW8wRPPHgE-3Pk_J-16" value="" style="endArrow=classic;html=1;rounded=0;entryX=0;entryY=0.5;entryDx=0;entryDy=0;" parent="1" target="lPzJSW8wRPPHgE-3Pk_J-8" edge="1">
          <mxGeometry width="50" height="50" relative="1" as="geometry">
            <mxPoint x="861" y="660" as="sourcePoint" />
            <mxPoint x="1030" y="440" as="targetPoint" />
            <Array as="points" />
          </mxGeometry>
        </mxCell>
        <mxCell id="lPzJSW8wRPPHgE-3Pk_J-17" value="" style="endArrow=classic;html=1;rounded=0;exitX=0.5;exitY=0;exitDx=0;exitDy=0;entryX=1;entryY=0.5;entryDx=0;entryDy=0;" parent="1" source="lPzJSW8wRPPHgE-3Pk_J-10" target="lPzJSW8wRPPHgE-3Pk_J-11" edge="1">
          <mxGeometry width="50" height="50" relative="1" as="geometry">
            <mxPoint x="1280" y="460" as="sourcePoint" />
            <mxPoint x="1330" y="410" as="targetPoint" />
            <Array as="points">
              <mxPoint x="1070" y="240" />
            </Array>
          </mxGeometry>
        </mxCell>
        <mxCell id="lPzJSW8wRPPHgE-3Pk_J-18" value="" style="endArrow=classic;html=1;rounded=0;exitX=1;exitY=0.5;exitDx=0;exitDy=0;entryX=1;entryY=0.5;entryDx=0;entryDy=0;" parent="1" source="lPzJSW8wRPPHgE-3Pk_J-9" target="lPzJSW8wRPPHgE-3Pk_J-11" edge="1">
          <mxGeometry width="50" height="50" relative="1" as="geometry">
            <mxPoint x="1180" y="550" as="sourcePoint" />
            <mxPoint x="1180" y="240" as="targetPoint" />
            <Array as="points">
              <mxPoint x="1210" y="540" />
              <mxPoint x="1210" y="240" />
            </Array>
          </mxGeometry>
        </mxCell>
        <mxCell id="lPzJSW8wRPPHgE-3Pk_J-19" value="" style="endArrow=classic;html=1;rounded=0;exitX=1;exitY=0.5;exitDx=0;exitDy=0;entryX=1;entryY=0.5;entryDx=0;entryDy=0;" parent="1" source="lPzJSW8wRPPHgE-3Pk_J-8" target="lPzJSW8wRPPHgE-3Pk_J-11" edge="1">
          <mxGeometry width="50" height="50" relative="1" as="geometry">
            <mxPoint x="1290" y="630" as="sourcePoint" />
            <mxPoint x="1200" y="230" as="targetPoint" />
            <Array as="points">
              <mxPoint x="1210" y="660" />
              <mxPoint x="1210" y="240" />
            </Array>
          </mxGeometry>
        </mxCell>
        <mxCell id="lPzJSW8wRPPHgE-3Pk_J-25" value="&lt;font style=&quot;font-size: 18px;&quot;&gt;服务注册&lt;/font&gt;" style="edgeLabel;html=1;align=center;verticalAlign=middle;resizable=0;points=[];" parent="lPzJSW8wRPPHgE-3Pk_J-19" vertex="1" connectable="0">
          <mxGeometry x="0.6767" relative="1" as="geometry">
            <mxPoint as="offset" />
          </mxGeometry>
        </mxCell>
        <mxCell id="lPzJSW8wRPPHgE-3Pk_J-20" value="&lt;font style=&quot;font-size: 24px;&quot;&gt;SPI&lt;/font&gt;" style="ellipse;whiteSpace=wrap;html=1;fillColor=#FFFF99;" parent="1" vertex="1">
          <mxGeometry x="740" y="30" width="120" height="80" as="geometry" />
        </mxCell>
        <mxCell id="lPzJSW8wRPPHgE-3Pk_J-21" value="" style="endArrow=classic;html=1;rounded=0;exitX=0.5;exitY=1;exitDx=0;exitDy=0;entryX=0.5;entryY=0;entryDx=0;entryDy=0;" parent="1" source="lPzJSW8wRPPHgE-3Pk_J-20" target="lPzJSW8wRPPHgE-3Pk_J-6" edge="1">
          <mxGeometry width="50" height="50" relative="1" as="geometry">
            <mxPoint x="900" y="180" as="sourcePoint" />
            <mxPoint x="950" y="130" as="targetPoint" />
          </mxGeometry>
        </mxCell>
        <mxCell id="lPzJSW8wRPPHgE-3Pk_J-28" value="&lt;font style=&quot;font-size: 18px;&quot;&gt;加载&lt;/font&gt;" style="edgeLabel;html=1;align=center;verticalAlign=middle;resizable=0;points=[];" parent="lPzJSW8wRPPHgE-3Pk_J-21" vertex="1" connectable="0">
          <mxGeometry x="-0.5185" y="1" relative="1" as="geometry">
            <mxPoint as="offset" />
          </mxGeometry>
        </mxCell>
        <mxCell id="lPzJSW8wRPPHgE-3Pk_J-22" value="" style="endArrow=classic;html=1;rounded=0;entryX=0.5;entryY=0;entryDx=0;entryDy=0;exitX=0;exitY=0.5;exitDx=0;exitDy=0;" parent="1" source="lPzJSW8wRPPHgE-3Pk_J-20" target="lPzJSW8wRPPHgE-3Pk_J-11" edge="1">
          <mxGeometry width="50" height="50" relative="1" as="geometry">
            <mxPoint x="620" y="160" as="sourcePoint" />
            <mxPoint x="670" y="110" as="targetPoint" />
            <Array as="points">
              <mxPoint x="680" y="70" />
            </Array>
          </mxGeometry>
        </mxCell>
        <mxCell id="lPzJSW8wRPPHgE-3Pk_J-27" value="&lt;font style=&quot;font-size: 18px;&quot;&gt;加载&lt;/font&gt;" style="edgeLabel;html=1;align=center;verticalAlign=middle;resizable=0;points=[];" parent="lPzJSW8wRPPHgE-3Pk_J-22" vertex="1" connectable="0">
          <mxGeometry x="0.3967" y="-1" relative="1" as="geometry">
            <mxPoint as="offset" />
          </mxGeometry>
        </mxCell>
        <mxCell id="lPzJSW8wRPPHgE-3Pk_J-23" value="" style="endArrow=classic;html=1;rounded=0;exitX=0;exitY=0.5;exitDx=0;exitDy=0;entryX=0.5;entryY=0;entryDx=0;entryDy=0;" parent="1" source="lPzJSW8wRPPHgE-3Pk_J-20" target="lPzJSW8wRPPHgE-3Pk_J-4" edge="1">
          <mxGeometry width="50" height="50" relative="1" as="geometry">
            <mxPoint x="570" y="420" as="sourcePoint" />
            <mxPoint x="620" y="370" as="targetPoint" />
            <Array as="points">
              <mxPoint x="600" y="70" />
            </Array>
          </mxGeometry>
        </mxCell>
        <mxCell id="lPzJSW8wRPPHgE-3Pk_J-26" value="&lt;font style=&quot;font-size: 18px;&quot;&gt;加载&lt;/font&gt;" style="edgeLabel;html=1;align=center;verticalAlign=middle;resizable=0;points=[];" parent="lPzJSW8wRPPHgE-3Pk_J-23" vertex="1" connectable="0">
          <mxGeometry x="-0.2747" y="-2" relative="1" as="geometry">
            <mxPoint as="offset" />
          </mxGeometry>
        </mxCell>
        <mxCell id="7dTNgXOos7ZfFWbfrfGe-1" value="&lt;span style=&quot;font-size: 24px;&quot;&gt;容错机制&lt;/span&gt;" style="rounded=0;whiteSpace=wrap;html=1;fillColor=#66FF66;" vertex="1" parent="1">
          <mxGeometry x="1330" y="590" width="120" height="60" as="geometry" />
        </mxCell>
        <mxCell id="7dTNgXOos7ZfFWbfrfGe-2" value="" style="endArrow=classic;html=1;rounded=0;entryX=0;entryY=0.5;entryDx=0;entryDy=0;" edge="1" parent="1" target="7dTNgXOos7ZfFWbfrfGe-1">
          <mxGeometry width="50" height="50" relative="1" as="geometry">
            <mxPoint x="1210" y="540" as="sourcePoint" />
            <mxPoint x="1380" y="510" as="targetPoint" />
            <Array as="points">
              <mxPoint x="1210" y="620" />
            </Array>
          </mxGeometry>
        </mxCell>
        <mxCell id="7dTNgXOos7ZfFWbfrfGe-3" value="&lt;font style=&quot;font-size: 18px;&quot;&gt;故障转移&lt;/font&gt;" style="text;html=1;align=center;verticalAlign=middle;resizable=0;points=[];autosize=1;strokeColor=none;fillColor=none;" vertex="1" parent="1">
          <mxGeometry x="1200" y="583" width="100" height="40" as="geometry" />
        </mxCell>
      </root>
    </mxGraphModel>
  </diagram>
  <diagram id="wAewXPEinBQEJNLkdcnH" name="第 2 页">
    <mxGraphModel dx="1720" dy="721" grid="1" gridSize="10" guides="1" tooltips="1" connect="1" arrows="1" fold="1" page="1" pageScale="1" pageWidth="827" pageHeight="1169" math="0" shadow="0">
      <root>
        <mxCell id="0" />
        <mxCell id="1" parent="0" />
        <mxCell id="YTYJNV1bEsfLPdDpil-u-1" value="" style="edgeStyle=orthogonalEdgeStyle;rounded=0;orthogonalLoop=1;jettySize=auto;html=1;entryX=0;entryY=0.5;entryDx=0;entryDy=0;" edge="1" parent="1" source="YTYJNV1bEsfLPdDpil-u-4" target="YTYJNV1bEsfLPdDpil-u-11">
          <mxGeometry relative="1" as="geometry">
            <mxPoint x="210" y="220" as="targetPoint" />
            <Array as="points">
              <mxPoint x="210" y="230" />
            </Array>
          </mxGeometry>
        </mxCell>
        <mxCell id="YTYJNV1bEsfLPdDpil-u-2" value="&lt;font style=&quot;font-size: 18px;&quot;&gt;服务发现&lt;/font&gt;" style="edgeLabel;html=1;align=center;verticalAlign=middle;resizable=0;points=[];" vertex="1" connectable="0" parent="YTYJNV1bEsfLPdDpil-u-1">
          <mxGeometry x="-0.4489" y="2" relative="1" as="geometry">
            <mxPoint as="offset" />
          </mxGeometry>
        </mxCell>
        <mxCell id="YTYJNV1bEsfLPdDpil-u-3" value="" style="edgeStyle=orthogonalEdgeStyle;rounded=0;orthogonalLoop=1;jettySize=auto;html=1;" edge="1" parent="1" source="YTYJNV1bEsfLPdDpil-u-4" target="YTYJNV1bEsfLPdDpil-u-6">
          <mxGeometry relative="1" as="geometry" />
        </mxCell>
        <mxCell id="YTYJNV1bEsfLPdDpil-u-4" value="&lt;font style=&quot;font-size: 24px;&quot;&gt;调用方&lt;/font&gt;" style="rounded=0;whiteSpace=wrap;html=1;fillColor=#FF0000;" vertex="1" parent="1">
          <mxGeometry x="150" y="500" width="120" height="60" as="geometry" />
        </mxCell>
        <mxCell id="YTYJNV1bEsfLPdDpil-u-5" value="" style="edgeStyle=orthogonalEdgeStyle;rounded=0;orthogonalLoop=1;jettySize=auto;html=1;" edge="1" parent="1" source="YTYJNV1bEsfLPdDpil-u-6" target="YTYJNV1bEsfLPdDpil-u-7">
          <mxGeometry relative="1" as="geometry" />
        </mxCell>
        <mxCell id="YTYJNV1bEsfLPdDpil-u-6" value="&lt;font style=&quot;font-size: 24px;&quot;&gt;负载均衡&lt;/font&gt;" style="whiteSpace=wrap;html=1;rounded=0;fillColor=#33FFFF;" vertex="1" parent="1">
          <mxGeometry x="350" y="500" width="120" height="60" as="geometry" />
        </mxCell>
        <mxCell id="YTYJNV1bEsfLPdDpil-u-7" value="&lt;font style=&quot;font-size: 24px;&quot;&gt;编码，序列化&lt;/font&gt;" style="whiteSpace=wrap;html=1;rounded=0;fillColor=#99FFFF;" vertex="1" parent="1">
          <mxGeometry x="550" y="370" width="120" height="320" as="geometry" />
        </mxCell>
        <mxCell id="YTYJNV1bEsfLPdDpil-u-8" value="&lt;font style=&quot;font-size: 24px;&quot;&gt;提供方C&lt;/font&gt;" style="whiteSpace=wrap;html=1;rounded=0;fillColor=#FF8E1C;" vertex="1" parent="1">
          <mxGeometry x="890" y="620" width="120" height="60" as="geometry" />
        </mxCell>
        <mxCell id="YTYJNV1bEsfLPdDpil-u-9" value="&lt;font style=&quot;font-size: 24px;&quot;&gt;提供方B&lt;/font&gt;" style="whiteSpace=wrap;html=1;rounded=0;fillColor=#FF8E1C;" vertex="1" parent="1">
          <mxGeometry x="890" y="500" width="120" height="60" as="geometry" />
        </mxCell>
        <mxCell id="YTYJNV1bEsfLPdDpil-u-10" value="&lt;font style=&quot;font-size: 24px;&quot;&gt;提供方A&lt;/font&gt;" style="whiteSpace=wrap;html=1;rounded=0;fillColor=#FF8E1C;" vertex="1" parent="1">
          <mxGeometry x="890" y="380" width="120" height="60" as="geometry" />
        </mxCell>
        <mxCell id="YTYJNV1bEsfLPdDpil-u-11" value="&lt;font style=&quot;font-size: 24px;&quot;&gt;注册中心&lt;/font&gt;" style="rounded=1;whiteSpace=wrap;html=1;fillColor=#007FFF;" vertex="1" parent="1">
          <mxGeometry x="430" y="200" width="120" height="60" as="geometry" />
        </mxCell>
        <mxCell id="YTYJNV1bEsfLPdDpil-u-12" value="" style="endArrow=classic;html=1;rounded=0;exitX=1.002;exitY=0.128;exitDx=0;exitDy=0;exitPerimeter=0;entryX=0;entryY=0.5;entryDx=0;entryDy=0;" edge="1" parent="1" source="YTYJNV1bEsfLPdDpil-u-7" target="YTYJNV1bEsfLPdDpil-u-10">
          <mxGeometry width="50" height="50" relative="1" as="geometry">
            <mxPoint x="750" y="490" as="sourcePoint" />
            <mxPoint x="800" y="440" as="targetPoint" />
          </mxGeometry>
        </mxCell>
        <mxCell id="YTYJNV1bEsfLPdDpil-u-13" value="" style="endArrow=classic;html=1;rounded=0;exitX=1;exitY=0.5;exitDx=0;exitDy=0;entryX=0;entryY=0.5;entryDx=0;entryDy=0;" edge="1" parent="1" source="YTYJNV1bEsfLPdDpil-u-7" target="YTYJNV1bEsfLPdDpil-u-9">
          <mxGeometry width="50" height="50" relative="1" as="geometry">
            <mxPoint x="670" y="541" as="sourcePoint" />
            <mxPoint x="820" y="530" as="targetPoint" />
          </mxGeometry>
        </mxCell>
        <mxCell id="YTYJNV1bEsfLPdDpil-u-14" value="" style="endArrow=classic;html=1;rounded=0;entryX=0;entryY=0.5;entryDx=0;entryDy=0;" edge="1" parent="1" target="YTYJNV1bEsfLPdDpil-u-8">
          <mxGeometry width="50" height="50" relative="1" as="geometry">
            <mxPoint x="671" y="650" as="sourcePoint" />
            <mxPoint x="840" y="430" as="targetPoint" />
            <Array as="points" />
          </mxGeometry>
        </mxCell>
        <mxCell id="YTYJNV1bEsfLPdDpil-u-15" value="" style="endArrow=classic;html=1;rounded=0;exitX=0.5;exitY=0;exitDx=0;exitDy=0;entryX=1;entryY=0.5;entryDx=0;entryDy=0;" edge="1" parent="1" source="YTYJNV1bEsfLPdDpil-u-10" target="YTYJNV1bEsfLPdDpil-u-11">
          <mxGeometry width="50" height="50" relative="1" as="geometry">
            <mxPoint x="1090" y="450" as="sourcePoint" />
            <mxPoint x="1140" y="400" as="targetPoint" />
            <Array as="points">
              <mxPoint x="950" y="230" />
            </Array>
          </mxGeometry>
        </mxCell>
        <mxCell id="YTYJNV1bEsfLPdDpil-u-16" value="" style="endArrow=classic;html=1;rounded=0;exitX=1;exitY=0.5;exitDx=0;exitDy=0;entryX=1;entryY=0.5;entryDx=0;entryDy=0;" edge="1" parent="1" source="YTYJNV1bEsfLPdDpil-u-9" target="YTYJNV1bEsfLPdDpil-u-11">
          <mxGeometry width="50" height="50" relative="1" as="geometry">
            <mxPoint x="990" y="540" as="sourcePoint" />
            <mxPoint x="990" y="230" as="targetPoint" />
            <Array as="points">
              <mxPoint x="1020" y="530" />
              <mxPoint x="1020" y="230" />
            </Array>
          </mxGeometry>
        </mxCell>
        <mxCell id="YTYJNV1bEsfLPdDpil-u-17" value="" style="endArrow=classic;html=1;rounded=0;exitX=1;exitY=0.5;exitDx=0;exitDy=0;entryX=1;entryY=0.5;entryDx=0;entryDy=0;" edge="1" parent="1" source="YTYJNV1bEsfLPdDpil-u-8" target="YTYJNV1bEsfLPdDpil-u-11">
          <mxGeometry width="50" height="50" relative="1" as="geometry">
            <mxPoint x="1100" y="620" as="sourcePoint" />
            <mxPoint x="1010" y="220" as="targetPoint" />
            <Array as="points">
              <mxPoint x="1020" y="650" />
              <mxPoint x="1020" y="230" />
            </Array>
          </mxGeometry>
        </mxCell>
        <mxCell id="YTYJNV1bEsfLPdDpil-u-18" value="&lt;font style=&quot;font-size: 18px;&quot;&gt;服务注册&lt;/font&gt;" style="edgeLabel;html=1;align=center;verticalAlign=middle;resizable=0;points=[];" vertex="1" connectable="0" parent="YTYJNV1bEsfLPdDpil-u-17">
          <mxGeometry x="0.6767" relative="1" as="geometry">
            <mxPoint as="offset" />
          </mxGeometry>
        </mxCell>
        <mxCell id="YTYJNV1bEsfLPdDpil-u-19" value="&lt;font style=&quot;font-size: 24px;&quot;&gt;SPI&lt;/font&gt;" style="ellipse;whiteSpace=wrap;html=1;fillColor=#FFFF99;" vertex="1" parent="1">
          <mxGeometry x="550" y="20" width="120" height="80" as="geometry" />
        </mxCell>
        <mxCell id="YTYJNV1bEsfLPdDpil-u-20" value="" style="endArrow=classic;html=1;rounded=0;exitX=0.5;exitY=1;exitDx=0;exitDy=0;entryX=0.5;entryY=0;entryDx=0;entryDy=0;" edge="1" parent="1" source="YTYJNV1bEsfLPdDpil-u-19" target="YTYJNV1bEsfLPdDpil-u-7">
          <mxGeometry width="50" height="50" relative="1" as="geometry">
            <mxPoint x="710" y="170" as="sourcePoint" />
            <mxPoint x="760" y="120" as="targetPoint" />
          </mxGeometry>
        </mxCell>
        <mxCell id="YTYJNV1bEsfLPdDpil-u-21" value="&lt;font style=&quot;font-size: 18px;&quot;&gt;加载&lt;/font&gt;" style="edgeLabel;html=1;align=center;verticalAlign=middle;resizable=0;points=[];" vertex="1" connectable="0" parent="YTYJNV1bEsfLPdDpil-u-20">
          <mxGeometry x="-0.5185" y="1" relative="1" as="geometry">
            <mxPoint as="offset" />
          </mxGeometry>
        </mxCell>
        <mxCell id="YTYJNV1bEsfLPdDpil-u-22" value="" style="endArrow=classic;html=1;rounded=0;entryX=0.5;entryY=0;entryDx=0;entryDy=0;exitX=0;exitY=0.5;exitDx=0;exitDy=0;" edge="1" parent="1" source="YTYJNV1bEsfLPdDpil-u-19" target="YTYJNV1bEsfLPdDpil-u-11">
          <mxGeometry width="50" height="50" relative="1" as="geometry">
            <mxPoint x="430" y="150" as="sourcePoint" />
            <mxPoint x="480" y="100" as="targetPoint" />
            <Array as="points">
              <mxPoint x="490" y="60" />
            </Array>
          </mxGeometry>
        </mxCell>
        <mxCell id="YTYJNV1bEsfLPdDpil-u-23" value="&lt;font style=&quot;font-size: 18px;&quot;&gt;加载&lt;/font&gt;" style="edgeLabel;html=1;align=center;verticalAlign=middle;resizable=0;points=[];" vertex="1" connectable="0" parent="YTYJNV1bEsfLPdDpil-u-22">
          <mxGeometry x="0.3967" y="-1" relative="1" as="geometry">
            <mxPoint as="offset" />
          </mxGeometry>
        </mxCell>
        <mxCell id="YTYJNV1bEsfLPdDpil-u-24" value="" style="endArrow=classic;html=1;rounded=0;exitX=0;exitY=0.5;exitDx=0;exitDy=0;entryX=0.5;entryY=0;entryDx=0;entryDy=0;" edge="1" parent="1" source="YTYJNV1bEsfLPdDpil-u-19" target="YTYJNV1bEsfLPdDpil-u-6">
          <mxGeometry width="50" height="50" relative="1" as="geometry">
            <mxPoint x="380" y="410" as="sourcePoint" />
            <mxPoint x="430" y="360" as="targetPoint" />
            <Array as="points">
              <mxPoint x="410" y="60" />
            </Array>
          </mxGeometry>
        </mxCell>
        <mxCell id="YTYJNV1bEsfLPdDpil-u-25" value="&lt;font style=&quot;font-size: 18px;&quot;&gt;加载&lt;/font&gt;" style="edgeLabel;html=1;align=center;verticalAlign=middle;resizable=0;points=[];" vertex="1" connectable="0" parent="YTYJNV1bEsfLPdDpil-u-24">
          <mxGeometry x="-0.2747" y="-2" relative="1" as="geometry">
            <mxPoint as="offset" />
          </mxGeometry>
        </mxCell>
        <mxCell id="YTYJNV1bEsfLPdDpil-u-27" value="&lt;font style=&quot;font-size: 24px;&quot;&gt;拦截&lt;/font&gt;&lt;font style=&quot;font-size: 24px;&quot;&gt;器&lt;/font&gt;" style="rounded=0;whiteSpace=wrap;html=1;fillColor=#999999;" vertex="1" parent="1">
          <mxGeometry x="1260" y="270" width="120" height="340" as="geometry" />
        </mxCell>
        <mxCell id="YTYJNV1bEsfLPdDpil-u-28" value="&lt;font style=&quot;font-size: 24px;&quot;&gt;容错机制&lt;/font&gt;" style="rounded=0;whiteSpace=wrap;html=1;fillColor=#00CC00;" vertex="1" parent="1">
          <mxGeometry x="1220" y="70" width="130" height="70" as="geometry" />
        </mxCell>
      </root>
    </mxGraphModel>
  </diagram>
</mxfile>
